<svg xmlns="http://www.w3.org/2000/svg" width="32" height="32" viewBox="0 0 32 32" fill="none">
<path fill-rule="evenodd" clip-rule="evenodd" d="M16.0003 11.3337C14.8354 11.3337 13.8908 11.9967 13.2832 12.8473C12.674 13.7002 12.3337 14.8187 12.3337 16.0003C12.3337 17.1819 12.674 18.3004 13.2832 19.1533C13.8908 20.004 14.8354 20.667 16.0003 20.667C17.1652 20.667 18.1098 20.004 18.7174 19.1533C19.3267 18.3004 19.667 17.1819 19.667 16.0003C19.667 14.8187 19.3267 13.7002 18.7174 12.8473C18.1098 11.9967 17.1652 11.3337 16.0003 11.3337ZM14.667 16.0003C14.667 15.249 14.8863 14.6174 15.1819 14.2036C15.4791 13.7875 15.7845 13.667 16.0003 13.667C16.2161 13.667 16.5215 13.7875 16.8187 14.2036C17.1143 14.6174 17.3337 15.249 17.3337 16.0003C17.3337 16.7517 17.1143 17.3832 16.8187 17.7971C16.5215 18.2132 16.2161 18.3337 16.0003 18.3337C15.7845 18.3337 15.4791 18.2132 15.1819 17.7971C14.8863 17.3832 14.667 16.7517 14.667 16.0003Z" fill="#161617"/>
<path fill-rule="evenodd" clip-rule="evenodd" d="M27.6772 7.44152C23.733 6.328 19.5401 6.41512 15.6349 7.70303C12.3333 8.79189 8.79996 8.91291 5.44693 8.066C4.10803 7.72783 2.66699 8.69315 2.66699 10.1939V22.3464C2.66699 23.3418 3.30761 24.2729 4.32351 24.5597C8.26786 25.6731 12.4607 25.5849 16.3657 24.2971C19.6672 23.2083 23.2005 23.088 26.5537 23.9351C27.8926 24.2734 29.3337 23.308 29.3337 21.8073V9.65481C29.3337 8.65942 28.693 7.72832 27.6772 7.44152ZM16.3657 9.91897C19.8143 8.78166 23.5156 8.7004 27.0003 9.67502V21.6417C23.256 20.7207 19.3176 20.8666 15.6349 22.0812C12.1862 23.2185 8.48484 23.3006 5.00033 22.3261V10.3594C8.7448 11.2803 12.6832 11.1335 16.3657 9.91897Z" fill="#161617"/>
</svg>